<?xml version="1.0" encoding="UTF-8" standalone="no"?>
<!DOCTYPE svg PUBLIC "-//W3C//DTD SVG 1.1//EN" "http://www.w3.org/Graphics/SVG/1.1/DTD/svg11.dtd">
<svg width="100%" height="100%" viewBox="0 0 841 841" version="1.1" xmlns="http://www.w3.org/2000/svg" xmlns:xlink="http://www.w3.org/1999/xlink" xml:space="preserve" xmlns:serif="http://www.serif.com/" style="fill-rule:evenodd;clip-rule:evenodd;stroke-linejoin:round;stroke-miterlimit:2;">
    <g transform="matrix(1.44552,0,0,1.44552,-282.961,-340.906)">
        <circle cx="486.352" cy="526.437" r="289.218" style="fill:white;"/>
    </g>
    <g transform="matrix(1.44552,0,0,1.44552,-282.961,-340.906)">
        <path d="M486.352,235.836C646.739,235.836 776.953,366.05 776.953,526.437C776.953,686.824 646.739,817.038 486.352,817.038C325.965,817.038 195.751,686.824 195.751,526.437C195.751,366.05 325.965,235.836 486.352,235.836ZM486.352,238.603C327.492,238.603 198.518,367.577 198.518,526.437C198.518,685.297 327.492,814.271 486.352,814.271C645.211,814.271 774.186,685.297 774.186,526.437C774.186,367.577 645.211,238.603 486.352,238.603Z" style="fill:rgb(35,31,32);"/>
    </g>
    <g transform="matrix(1,0,0,1,-70.6327,-90.034)">
        <path d="M490.702,101.331C716.31,101.331 899.475,284.496 899.475,510.104C899.475,735.711 716.31,918.876 490.702,918.876C265.095,918.876 81.93,735.711 81.93,510.104C81.93,284.496 265.095,101.331 490.702,101.331ZM490.702,242.309C342.902,242.309 222.908,362.304 222.908,510.104C222.908,657.904 342.902,777.898 490.702,777.898C638.502,777.898 758.497,657.904 758.497,510.104C758.497,362.304 638.502,242.309 490.702,242.309Z" style="fill:rgb(8,6,5);"/>
    </g>
    <g transform="matrix(1.10511,0,0,1.10511,-124.535,-146.193)">
        <path d="M357.198,215.84C356.751,216.126 356.281,216.541 355.789,217.087C355.298,217.632 354.886,218.21 354.555,218.821C354.15,219.599 353.903,220.363 353.814,221.115C353.725,221.867 353.807,222.796 354.06,223.901C355.232,228.89 356.608,234.712 358.187,241.367C359.767,248.022 361.427,255.128 363.165,262.685L360.638,264.161L333.278,239.914L340.56,275.894L338.143,277.307C332.585,271.957 326.822,266.403 320.852,260.643C314.882,254.883 310.883,251.024 308.854,249.065C308.358,248.594 307.821,248.232 307.243,247.98C306.666,247.728 305.996,247.579 305.233,247.534C304.593,247.49 303.921,247.57 303.216,247.772C302.512,247.975 301.902,248.203 301.386,248.455L300.247,246.505L316.15,237.212L317.289,239.162C315.94,240.048 314.835,240.878 313.973,241.652C313.111,242.426 312.819,243.051 313.098,243.527C313.205,243.71 313.374,243.937 313.605,244.207C313.837,244.477 314.024,244.693 314.168,244.855C315.531,246.22 317.831,248.443 321.069,251.525C324.307,254.607 329.141,259.232 335.569,265.399L328.391,230.795L331.083,229.222L358.159,253.046C356.823,247.734 355.639,243.102 354.607,239.149C353.574,235.196 352.663,231.829 351.873,229.048C351.317,227.088 350.91,225.76 350.65,225.064C350.391,224.368 350.133,223.801 349.876,223.361C349.512,222.739 348.782,222.466 347.684,222.542C346.586,222.618 345.043,223.14 343.053,224.106L341.913,222.156L356.058,213.89L357.198,215.84Z" style="fill:rgb(248,219,101);fill-rule:nonzero;"/>
        <path d="M421.258,239.115L403.515,245.331L402.768,243.2C404.294,242.553 405.52,241.898 406.446,241.237C407.371,240.576 407.757,240.025 407.603,239.585C407.539,239.404 407.442,239.191 407.311,238.945C407.18,238.699 407.039,238.49 406.889,238.318L400.001,230.012L385.08,235.239C385.01,236.837 384.983,238.217 384.997,239.381C385.012,240.544 385.033,241.615 385.061,242.594C385.103,243.546 385.168,244.31 385.257,244.885C385.346,245.461 385.451,245.919 385.57,246.259C385.85,247.059 386.698,247.459 388.113,247.458C389.529,247.456 391.041,247.218 392.65,246.744L393.397,248.876L377.365,254.493L376.618,252.361C377.124,252.139 377.734,251.796 378.448,251.332C379.162,250.869 379.713,250.389 380.102,249.894C380.713,249.073 381.135,248.29 381.369,247.545C381.602,246.8 381.747,245.834 381.803,244.646C382.072,238.552 382.33,231.72 382.577,224.15C382.824,216.58 383.046,209.839 383.245,203.927L385.646,203.085L412.722,234.858C413.296,235.534 413.857,236.045 414.406,236.392C414.954,236.739 415.649,237.024 416.491,237.246C417.05,237.365 417.733,237.389 418.54,237.32C419.347,237.251 420.004,237.139 420.512,236.983L421.258,239.115ZM397.984,227.718L385.744,213.467L385.195,232.199L397.984,227.718Z" style="fill:rgb(248,219,101);fill-rule:nonzero;"/>
        <path d="M461.375,188.769C460.793,188.889 459.923,189.209 458.763,189.729C457.604,190.249 456.791,190.72 456.325,191.144C455.662,191.794 455.325,192.884 455.316,194.413C455.307,195.942 455.496,197.846 455.883,200.125L461.42,232.711L458.692,233.174L425.533,201.345L429.434,224.303C429.871,226.875 430.368,228.823 430.927,230.148C431.486,231.473 432.149,232.371 432.918,232.843C433.477,233.221 434.543,233.481 436.116,233.622C437.689,233.764 438.717,233.804 439.202,233.743L439.58,235.97L421.327,239.072L420.949,236.845C421.506,236.707 422.423,236.342 423.699,235.749C424.975,235.155 425.755,234.684 426.04,234.334C426.672,233.624 427.022,232.645 427.09,231.397C427.157,230.148 426.944,228.071 426.45,225.165L422.725,203.242C422.561,202.28 422.231,201.347 421.733,200.442C421.235,199.537 420.659,198.871 420.006,198.445C419.136,197.882 418.016,197.465 416.647,197.192C415.277,196.919 414.192,196.83 413.39,196.923L413.012,194.696L425.714,192.538L456.508,222.219L452.91,201.049C452.47,198.457 451.964,196.494 451.393,195.16C450.822,193.827 450.184,192.983 449.479,192.63C448.826,192.332 447.804,192.108 446.412,191.957C445.02,191.806 443.976,191.768 443.279,191.844L442.901,189.617L460.997,186.542L461.375,188.769Z" style="fill:rgb(248,219,101);fill-rule:nonzero;"/>
        <path d="M508.789,198.127L506.594,198.145C506.397,197.383 506.045,196.479 505.538,195.433C505.032,194.387 504.467,193.4 503.845,192.472C503.201,191.501 502.499,190.653 501.741,189.927C500.982,189.202 500.252,188.789 499.552,188.688C498.893,188.609 498.066,188.551 497.069,188.517C496.072,188.482 495.149,188.469 494.301,188.475L492.456,188.49L492.742,224.596C492.747,225.296 492.901,225.936 493.203,226.517C493.504,227.098 494.027,227.544 494.772,227.856C495.155,228.002 495.957,228.197 497.179,228.442C498.4,228.687 499.35,228.817 500.029,228.833L500.047,231.091L478.733,231.26L478.715,229.002C479.309,228.955 480.215,228.863 481.433,228.726C482.652,228.589 483.493,228.423 483.958,228.229C484.656,227.947 485.167,227.546 485.492,227.023C485.816,226.501 485.975,225.805 485.968,224.936L485.68,188.544L483.835,188.558C483.177,188.563 482.361,188.586 481.386,188.625C480.41,188.665 479.478,188.741 478.588,188.854C477.889,188.945 477.166,189.369 476.419,190.128C475.672,190.887 474.984,191.746 474.355,192.706C473.727,193.665 473.173,194.682 472.694,195.757C472.214,196.832 471.882,197.72 471.697,198.421L469.47,198.439L469.373,186.191L508.692,185.88L508.789,198.127Z" style="fill:rgb(248,219,101);fill-rule:nonzero;"/>
        <path d="M554.388,237.254L535.775,234.601L536.094,232.365C537.747,232.494 539.136,232.477 540.262,232.317C541.389,232.156 541.985,231.844 542.05,231.382C542.077,231.193 542.089,230.96 542.086,230.681C542.083,230.402 542.055,230.151 542,229.929L539.712,219.385L524.059,217.154C523.262,218.54 522.601,219.752 522.078,220.792C521.555,221.831 521.081,222.792 520.655,223.674C520.254,224.538 519.96,225.246 519.774,225.798C519.589,226.35 519.47,226.804 519.419,227.161C519.3,228.001 519.868,228.746 521.125,229.396C522.382,230.047 523.834,230.532 525.481,230.853L525.162,233.089L508.344,230.692L508.663,228.456C509.215,228.491 509.914,228.468 510.762,228.385C511.609,228.302 512.319,228.131 512.892,227.869C513.812,227.422 514.548,226.922 515.098,226.368C515.648,225.815 516.221,225.023 516.818,223.995C519.863,218.709 523.239,212.763 526.944,206.157C530.649,199.552 533.95,193.67 536.849,188.514L539.369,188.873L548.771,229.545C548.969,230.408 549.232,231.121 549.559,231.681C549.886,232.242 550.372,232.815 551.017,233.4C551.459,233.762 552.053,234.099 552.802,234.409C553.55,234.719 554.185,234.922 554.707,235.018L554.388,237.254ZM538.977,216.42L534.675,198.133L525.561,214.508L538.977,216.42Z" style="fill:rgb(248,219,101);fill-rule:nonzero;"/>
        <path d="M603.158,233.871C602.653,233.777 601.971,233.665 601.111,233.536C600.251,233.406 599.529,233.382 598.947,233.463C598.244,233.573 597.678,233.865 597.248,234.34C596.818,234.815 596.484,235.427 596.245,236.174L595.182,239.508C594.409,241.933 593.902,243.574 593.661,244.432C593.421,245.291 593.234,245.999 593.1,246.558C590.026,246.913 587.053,246.988 584.179,246.784C581.306,246.58 578.586,246.068 576.02,245.25C573.272,244.373 570.79,243.014 568.573,241.171C566.356,239.329 564.6,237.155 563.307,234.65C562,232.118 561.218,229.298 560.963,226.189C560.708,223.08 561.122,219.829 562.205,216.434C563.249,213.161 564.758,210.297 566.732,207.844C568.705,205.39 571.011,203.449 573.648,202.019C576.212,200.611 579.002,199.77 582.016,199.496C585.031,199.222 588.054,199.569 591.085,200.535C593.509,201.309 595.527,202.275 597.139,203.435C598.75,204.594 600.11,205.808 601.22,207.074L603.12,205.41L605.545,206.183L601.022,221.303L598.537,220.51C598.641,218.718 598.637,216.919 598.523,215.113C598.409,213.306 598.06,211.609 597.476,210.02C596.892,208.432 596.008,207.031 594.825,205.819C593.643,204.607 592.061,203.685 590.081,203.054C587.919,202.364 585.849,202.188 583.872,202.526C581.894,202.863 580.002,203.701 578.195,205.039C576.427,206.323 574.811,208.111 573.345,210.404C571.879,212.697 570.653,215.389 569.667,218.48C568.797,221.208 568.305,223.884 568.191,226.508C568.078,229.132 568.367,231.522 569.059,233.68C569.738,235.878 570.853,237.792 572.403,239.421C573.954,241.051 575.921,242.246 578.305,243.007C580.083,243.574 581.792,243.819 583.431,243.74C585.07,243.662 586.289,243.416 587.088,243.004C587.585,242.005 588.009,240.971 588.361,239.903C588.713,238.836 589.008,237.928 589.246,237.181L590,234.817C590.271,233.968 590.395,233.178 590.372,232.447C590.349,231.717 590.022,231.084 589.391,230.549C588.821,230.033 587.99,229.517 586.896,229.001C585.803,228.486 584.94,228.105 584.306,227.858L585.012,225.646L603.863,231.659L603.158,233.871Z" style="fill:rgb(248,219,101);fill-rule:nonzero;"/>
        <path d="M642.421,274.176L625.847,265.435L626.901,263.437C627.371,263.637 628.053,263.925 628.946,264.3C629.839,264.675 630.485,264.872 630.883,264.89C631.564,264.961 632.157,264.837 632.662,264.516C633.167,264.195 633.613,263.668 633.999,262.937L641.493,248.727L622.725,238.828L615.394,252.728C615.047,253.385 614.863,253.995 614.842,254.559C614.82,255.123 615.039,255.742 615.499,256.416C615.728,256.753 616.207,257.221 616.934,257.82C617.661,258.42 618.254,258.852 618.713,259.118L617.659,261.116L601.086,252.375L602.139,250.377C602.609,250.577 603.291,250.864 604.184,251.24C605.077,251.615 605.723,251.811 606.121,251.83C606.802,251.901 607.396,251.777 607.901,251.455C608.406,251.134 608.851,250.608 609.237,249.876L624.434,221.063C624.751,220.463 624.918,219.85 624.937,219.224C624.955,218.598 624.738,217.986 624.286,217.388C623.909,216.877 623.408,216.337 622.785,215.769C622.161,215.2 621.597,214.759 621.092,214.444L622.145,212.447L638.719,221.188L637.665,223.186C637.13,222.927 636.443,222.673 635.604,222.422C634.765,222.172 634.123,222.013 633.679,221.947C632.923,221.835 632.298,221.985 631.805,222.397C631.312,222.808 630.903,223.324 630.576,223.943L624.046,236.323L642.814,246.223L649.196,234.123C649.513,233.523 649.68,232.91 649.698,232.284C649.717,231.658 649.5,231.046 649.048,230.448C648.67,229.937 648.17,229.398 647.546,228.829C646.923,228.261 646.359,227.819 645.853,227.505L646.907,225.507L663.481,234.248L662.427,236.246C661.892,235.988 661.205,235.733 660.366,235.483C659.527,235.232 658.885,235.073 658.441,235.007C657.684,234.895 657.06,235.046 656.567,235.457C656.074,235.869 655.664,236.384 655.338,237.003L640.155,265.788C639.809,266.445 639.625,267.055 639.603,267.619C639.582,268.183 639.801,268.802 640.26,269.476C640.49,269.813 640.969,270.281 641.696,270.881C642.423,271.48 643.016,271.912 643.475,272.179L642.421,274.176Z" style="fill:rgb(248,219,101);fill-rule:nonzero;"/>
    </g>
    <g transform="matrix(1.34388,0,0,1.34388,-238.121,-282.34)">
        <path d="M314.915,694.351C313.662,695.53 312.321,696.328 310.894,696.746C309.466,697.163 308.028,697.234 306.577,696.96C305.138,696.697 303.788,696.19 302.527,695.439C301.267,694.688 300.095,693.736 299.011,692.585L296.478,689.892L289.196,696.745C288.801,697.117 288.515,697.509 288.338,697.92C288.161,698.331 288.184,698.815 288.409,699.37C288.521,699.647 288.785,700.075 289.201,700.652C289.616,701.23 290.02,701.738 290.413,702.178L289.211,703.309L279.505,692.997L280.708,691.865C280.985,692.115 281.394,692.47 281.934,692.93C282.474,693.391 282.884,693.68 283.166,693.799C283.631,693.999 284.077,694.043 284.503,693.93C284.928,693.816 285.361,693.553 285.801,693.138L303.142,676.819C303.537,676.447 303.839,676.056 304.049,675.646C304.259,675.236 304.247,674.747 304.011,674.181C303.755,673.614 303.458,673.089 303.122,672.607C302.785,672.126 302.485,671.722 302.221,671.396L303.423,670.264L313.75,681.237C315.853,683.473 317.022,685.795 317.256,688.204C317.49,690.612 316.71,692.661 314.915,694.351ZM305.972,693.059C306.875,692.933 307.676,692.659 308.374,692.236C309.072,691.813 309.653,691.384 310.116,690.948C310.759,690.342 311.342,689.65 311.865,688.871C312.388,688.091 312.722,687.282 312.868,686.442C313.027,685.547 312.95,684.64 312.638,683.721C312.326,682.801 311.718,681.861 310.815,680.902L308.568,678.514L297.951,688.506L299.576,690.233C300.724,691.453 301.845,692.265 302.94,692.671C304.036,693.077 305.046,693.207 305.972,693.059Z" style="fill:rgb(248,219,101);fill-rule:nonzero;"/>
        <path d="M328.786,726.149L322.046,733.18L301.09,715.539L302.154,714.276C302.529,714.552 303.046,714.901 303.704,715.323C304.362,715.745 304.815,715.989 305.063,716.056C305.592,716.198 306.05,716.188 306.438,716.029C306.826,715.869 307.205,715.569 307.574,715.131L322.85,696.986C323.179,696.594 323.406,696.193 323.53,695.78C323.654,695.368 323.588,694.892 323.333,694.353C323.143,693.93 322.828,693.431 322.388,692.858C321.948,692.286 321.578,691.852 321.278,691.559L322.341,690.296L341.874,706.74L336.752,712.823L335.418,711.7C335.939,710.599 336.233,709.21 336.298,707.532C336.362,705.854 336.079,704.668 335.447,703.974C335.12,703.617 334.711,703.212 334.221,702.759C333.731,702.306 333.16,701.805 332.507,701.256L328.541,697.916L320.094,707.949L322.94,710.346C323.854,711.114 324.593,711.59 325.159,711.772C325.725,711.955 326.337,711.979 326.997,711.846C327.547,711.721 328.157,711.449 328.825,711.029C329.493,710.608 330.071,710.168 330.56,709.708L331.894,710.831L323.582,720.704L322.248,719.581C322.68,718.972 323.059,718.262 323.386,717.453C323.712,716.644 323.883,716.002 323.897,715.528C323.919,714.756 323.755,714.102 323.407,713.565C323.058,713.028 322.498,712.435 321.727,711.787L318.881,709.39L312.501,716.969C311.862,717.728 311.412,718.371 311.149,718.9C310.886,719.429 310.814,719.935 310.933,720.42C311.052,720.905 311.35,721.405 311.829,721.92C312.308,722.434 313.039,723.106 314.024,723.934C314.415,724.264 314.931,724.698 315.571,725.237C316.212,725.776 316.771,726.207 317.25,726.529C317.741,726.861 318.279,727.167 318.864,727.446C319.449,727.726 319.932,727.844 320.313,727.801C321.338,727.691 322.637,727.31 324.209,726.657C325.781,726.005 326.88,725.476 327.505,725.071L328.786,726.149Z" style="fill:rgb(248,219,101);fill-rule:nonzero;"/>
        <path d="M354.112,754.523L346.644,749.713C346.659,746.053 346.608,742.848 346.489,740.098C346.37,737.348 346.175,734.466 345.904,731.451L343.069,729.626L337.403,738.423C337.109,738.879 336.923,739.326 336.844,739.764C336.765,740.202 336.901,740.663 337.253,741.148C337.428,741.39 337.784,741.739 338.321,742.195C338.857,742.651 339.323,743.015 339.718,743.289L338.824,744.677L327.094,737.122L327.988,735.734C328.318,735.91 328.8,736.156 329.435,736.473C330.07,736.789 330.538,736.971 330.84,737.018C331.34,737.1 331.783,737.035 332.169,736.823C332.555,736.61 332.911,736.25 333.239,735.741L346.157,715.683C346.451,715.227 346.646,714.781 346.742,714.345C346.838,713.909 346.704,713.445 346.339,712.952C346.089,712.625 345.735,712.244 345.276,711.811C344.818,711.377 344.415,711.03 344.066,710.769L344.96,709.381L357.766,717.628C358.939,718.383 359.962,719.213 360.837,720.117C361.711,721.021 362.393,722.009 362.883,723.081C363.356,724.123 363.562,725.219 363.503,726.37C363.444,727.522 363.032,728.69 362.268,729.876C361.58,730.945 360.809,731.785 359.954,732.396C359.099,733.008 358.16,733.407 357.135,733.596C356.188,733.778 355.171,733.81 354.086,733.692C353,733.574 351.87,733.339 350.695,732.988C350.896,735.681 351.051,737.938 351.16,739.76C351.268,741.581 351.41,743.802 351.585,746.423C351.654,747.574 351.801,748.484 352.025,749.154C352.248,749.823 352.512,750.422 352.817,750.95C353.047,751.338 353.387,751.741 353.836,752.16C354.286,752.578 354.676,752.903 355.006,753.135L354.112,754.523ZM357.15,727.216C358.233,725.535 358.609,723.892 358.278,722.286C357.947,720.681 356.902,719.312 355.143,718.179L351.819,716.038L344.152,727.944L346.713,729.594C348.511,730.752 350.381,731.141 352.323,730.759C354.265,730.378 355.874,729.197 357.15,727.216Z" style="fill:rgb(248,219,101);fill-rule:nonzero;"/>
        <path d="M391.274,745.22L389.709,744.452C389.956,743.209 389.925,741.734 389.614,740.028C389.303,738.321 388.754,737.197 387.967,736.655C387.563,736.387 387.072,736.094 386.494,735.776C385.916,735.458 385.252,735.115 384.5,734.746L379.532,732.307L373.692,744.206L377.094,745.876C378.124,746.381 378.977,746.666 379.654,746.73C380.33,746.795 380.979,746.703 381.602,746.456C382.03,746.287 382.518,745.935 383.065,745.4C383.613,744.866 384.102,744.247 384.534,743.544L386.12,744.322L380.413,755.949L378.826,755.171C379.085,754.538 379.284,753.772 379.423,752.873C379.562,751.974 379.578,751.283 379.47,750.798C379.306,750.078 378.953,749.469 378.412,748.97C377.871,748.472 377.155,748.004 376.264,747.566L372.862,745.896L367.851,756.104C367.626,756.563 367.515,757.018 367.518,757.469C367.521,757.919 367.698,758.369 368.048,758.817C368.209,759.017 368.603,759.357 369.231,759.838C369.858,760.318 370.349,760.654 370.704,760.846L369.977,762.328L357.139,756.027L357.867,754.544C358.298,754.722 358.877,754.95 359.603,755.229C360.33,755.507 360.821,755.649 361.078,755.654C361.584,755.678 362.018,755.559 362.38,755.297C362.742,755.034 363.046,754.652 363.292,754.151L373.785,732.776C374.01,732.316 374.133,731.872 374.154,731.442C374.175,731.012 373.997,730.566 373.619,730.104C373.332,729.739 372.907,729.331 372.342,728.881C371.777,728.431 371.313,728.1 370.951,727.888L371.679,726.406L394.912,737.81L391.274,745.22Z" style="fill:rgb(248,219,101);fill-rule:nonzero;"/>
        <path d="M419.967,750.918C420.844,752.832 421.317,754.938 421.387,757.235C421.457,759.533 421.064,761.912 420.207,764.371C419.346,766.846 418.168,768.955 416.674,770.7C415.18,772.446 413.483,773.783 411.583,774.714C409.732,775.646 407.774,776.178 405.708,776.313C403.642,776.447 401.592,776.16 399.557,775.451C397.39,774.697 395.529,773.594 393.975,772.141C392.42,770.689 391.237,769.009 390.424,767.101C389.601,765.222 389.165,763.137 389.117,760.847C389.069,758.557 389.448,756.255 390.253,753.942C391.135,751.409 392.317,749.289 393.798,747.58C395.279,745.872 396.968,744.535 398.863,743.57C400.739,742.614 402.721,742.073 404.808,741.946C406.896,741.82 408.936,742.103 410.927,742.796C412.991,743.515 414.803,744.581 416.363,745.994C417.923,747.407 419.124,749.048 419.967,750.918ZM409.003,771.871C410.287,770.824 411.408,769.524 412.368,767.97C413.327,766.416 414.169,764.6 414.893,762.521C415.637,760.384 416.111,758.349 416.316,756.418C416.521,754.486 416.44,752.751 416.073,751.212C415.701,749.687 415.028,748.365 414.055,747.247C413.082,746.128 411.813,745.296 410.246,744.751C408.489,744.139 406.856,744.022 405.346,744.399C403.836,744.776 402.458,745.503 401.213,746.579C400.032,747.613 398.962,748.931 398.002,750.533C397.042,752.136 396.23,753.889 395.568,755.792C394.834,757.901 394.361,759.87 394.151,761.701C393.94,763.532 394.015,765.249 394.376,766.852C394.718,768.415 395.363,769.768 396.311,770.911C397.26,772.054 398.568,772.916 400.237,773.497C401.804,774.042 403.344,774.168 404.858,773.875C406.372,773.581 407.753,772.913 409.003,771.871Z" style="fill:rgb(248,219,101);fill-rule:nonzero;"/>
        <path d="M452.655,787.93L443.942,786.197C442.613,782.787 441.389,779.825 440.269,777.31C439.149,774.796 437.91,772.186 436.551,769.481L433.244,768.824L431.203,779.087C431.097,779.619 431.087,780.103 431.174,780.539C431.262,780.975 431.558,781.354 432.063,781.676C432.315,781.837 432.774,782.031 433.44,782.258C434.106,782.486 434.674,782.654 435.142,782.763L434.82,784.382L421.136,781.66L421.458,780.041C421.829,780.083 422.368,780.135 423.075,780.196C423.782,780.258 424.284,780.255 424.582,780.188C425.077,780.081 425.466,779.858 425.747,779.519C426.027,779.179 426.227,778.713 426.345,778.12L431,754.721C431.106,754.188 431.124,753.702 431.053,753.261C430.983,752.82 430.687,752.438 430.167,752.113C429.814,751.9 429.345,751.677 428.76,751.442C428.174,751.207 427.672,751.032 427.252,750.916L427.574,749.297L442.512,752.269C443.881,752.541 445.138,752.937 446.283,753.458C447.428,753.978 448.425,754.647 449.274,755.464C450.096,756.259 450.69,757.203 451.058,758.296C451.425,759.389 451.471,760.627 451.196,762.01C450.948,763.257 450.539,764.322 449.968,765.204C449.397,766.086 448.67,766.803 447.786,767.354C446.972,767.872 446.038,768.275 444.985,768.563C443.932,768.851 442.794,769.048 441.572,769.153C442.748,771.584 443.721,773.626 444.49,775.281C445.259,776.936 446.206,778.95 447.33,781.323C447.818,782.368 448.288,783.161 448.742,783.702C449.196,784.243 449.661,784.703 450.139,785.082C450.495,785.359 450.959,785.609 451.531,785.833C452.102,786.058 452.584,786.217 452.977,786.311L452.655,787.93ZM445.459,761.414C445.849,759.453 445.596,757.786 444.699,756.414C443.802,755.043 442.327,754.153 440.275,753.744L436.398,752.973L433.635,766.862L436.622,767.457C438.72,767.874 440.603,767.549 442.269,766.482C443.936,765.414 444.999,763.725 445.459,761.414Z" style="fill:rgb(248,219,101);fill-rule:nonzero;"/>
        <path d="M496.008,790.869L481.452,790.043L481.545,788.395C482.072,788.409 482.753,788.394 483.586,788.348C484.419,788.302 484.995,788.202 485.315,788.05C485.811,787.783 486.182,787.466 486.428,787.1C486.674,786.733 486.813,786.264 486.846,785.691L488.205,761.732L487.856,761.712L475.028,789.143L473.867,789.077L464.789,759.822L464.487,759.804L463.372,779.469C463.264,781.372 463.302,782.826 463.486,783.83C463.669,784.835 463.997,785.567 464.467,786.029C464.789,786.373 465.476,786.723 466.527,787.077C467.579,787.432 468.266,787.626 468.591,787.66L468.497,789.309L455.194,788.554L455.288,786.906C455.988,786.883 456.726,786.809 457.501,786.682C458.277,786.555 458.884,786.333 459.321,786.017C459.887,785.614 460.296,784.969 460.548,784.083C460.801,783.197 460.986,781.701 461.106,779.596L462.062,762.741C462.117,761.766 462.046,760.963 461.849,760.33C461.652,759.698 461.348,759.176 460.936,758.765C460.48,758.319 459.91,757.977 459.225,757.736C458.539,757.495 457.857,757.34 457.178,757.27L457.272,755.622L468.508,756.259L476.533,781.496L485.761,761.291C486.098,760.549 486.394,759.77 486.65,758.954C486.906,758.137 487.05,757.59 487.081,757.313L497.83,757.922L497.737,759.571C497.303,759.562 496.745,759.6 496.065,759.686C495.385,759.771 494.887,759.859 494.571,759.95C494.034,760.106 493.661,760.395 493.45,760.818C493.24,761.241 493.12,761.708 493.091,762.219L491.744,785.969C491.714,786.511 491.781,786.972 491.945,787.354C492.11,787.736 492.448,788.082 492.958,788.39C493.228,788.561 493.715,788.732 494.419,788.904C495.124,789.076 495.685,789.181 496.102,789.221L496.008,790.869Z" style="fill:rgb(248,219,101);fill-rule:nonzero;"/>
        <path d="M517.223,789.107L502.395,790.06L502.289,788.412C502.704,788.355 503.305,788.269 504.09,788.157C504.875,788.044 505.426,787.916 505.743,787.771C506.24,787.537 506.594,787.239 506.804,786.876C507.013,786.513 507.098,786.022 507.058,785.403L505.525,761.547C505.491,761.006 505.376,760.559 505.183,760.206C504.989,759.854 504.568,759.574 503.917,759.367C503.441,759.211 502.846,759.075 502.132,758.958C501.417,758.841 500.835,758.781 500.384,758.779L500.278,757.131L515.107,756.178L515.213,757.826C514.734,757.872 514.165,757.967 513.507,758.11C512.848,758.254 512.276,758.418 511.791,758.605C511.215,758.828 510.84,759.155 510.666,759.586C510.491,760.017 510.421,760.487 510.453,760.998L511.985,784.83C512.018,785.341 512.159,785.786 512.409,786.166C512.658,786.546 513.061,786.835 513.618,787.032C513.951,787.135 514.489,787.236 515.233,787.336C515.978,787.436 516.606,787.477 517.117,787.459L517.223,789.107Z" style="fill:rgb(248,219,101);fill-rule:nonzero;"/>
        <path d="M551.77,752.14C551.345,752.23 550.71,752.466 549.863,752.848C549.017,753.231 548.424,753.577 548.085,753.888C547.601,754.365 547.357,755.162 547.354,756.28C547.351,757.397 547.494,758.789 547.782,760.454L551.904,784.26L549.911,784.605L525.6,761.416L528.504,778.188C528.829,780.066 529.198,781.489 529.609,782.457C530.02,783.424 530.507,784.079 531.07,784.422C531.48,784.697 532.26,784.885 533.41,784.984C534.56,785.084 535.312,785.111 535.666,785.066L535.947,786.692L522.612,789.002L522.331,787.375C522.738,787.273 523.407,787.004 524.338,786.567C525.27,786.13 525.839,785.784 526.046,785.528C526.507,785.008 526.76,784.291 526.807,783.378C526.853,782.466 526.693,780.948 526.325,778.824L523.552,762.809C523.43,762.106 523.186,761.424 522.82,760.764C522.454,760.104 522.032,759.618 521.553,759.308C520.916,758.899 520.097,758.596 519.095,758.4C518.093,758.204 517.3,758.141 516.714,758.211L516.432,756.584L525.712,754.977L548.289,776.602L545.611,761.136C545.283,759.242 544.909,757.808 544.489,756.835C544.068,755.862 543.6,755.246 543.083,754.99C542.606,754.774 541.858,754.612 540.84,754.505C539.823,754.398 539.059,754.373 538.55,754.43L538.268,752.803L551.489,750.514L551.77,752.14Z" style="fill:rgb(248,219,101);fill-rule:nonzero;"/>
        <path d="M588.372,759.379C588.032,759.536 587.578,759.759 587.011,760.047C586.444,760.335 586.004,760.626 585.692,760.922C585.32,761.285 585.107,761.699 585.053,762.164C584.998,762.63 585.059,763.135 585.234,763.681L586.015,766.117C586.583,767.889 586.978,769.081 587.199,769.694C587.42,770.307 587.609,770.808 587.766,771.197C586.087,772.712 584.349,774.018 582.551,775.116C580.754,776.213 578.918,777.062 577.044,777.663C575.036,778.307 572.982,778.551 570.88,778.394C568.779,778.238 566.812,777.688 564.979,776.746C563.127,775.793 561.466,774.446 559.995,772.703C558.525,770.961 557.392,768.849 556.597,766.369C555.83,763.978 555.513,761.633 555.647,759.335C555.782,757.038 556.33,754.904 557.294,752.934C558.223,751.008 559.527,749.325 561.205,747.883C562.884,746.441 564.83,745.365 567.045,744.655C568.816,744.087 570.427,743.806 571.878,743.813C573.329,743.82 574.654,743.965 575.852,744.248L576.277,742.451L578.048,741.883L581.77,752.802L579.954,753.384C579.256,752.273 578.49,751.204 577.656,750.178C576.822,749.151 575.894,748.288 574.872,747.59C573.851,746.892 572.731,746.433 571.513,746.214C570.294,745.994 568.962,746.116 567.515,746.58C565.936,747.086 564.629,747.859 563.595,748.899C562.561,749.939 561.79,751.24 561.282,752.803C560.774,754.317 560.57,756.068 560.67,758.054C560.77,760.041 561.182,762.164 561.906,764.422C562.545,766.415 563.388,768.217 564.433,769.827C565.479,771.437 566.665,772.738 567.992,773.728C569.328,774.749 570.804,775.415 572.418,775.728C574.032,776.04 575.711,775.917 577.452,775.359C578.751,774.942 579.872,774.363 580.815,773.621C581.757,772.879 582.379,772.216 582.68,771.631C582.551,770.826 582.366,770.031 582.122,769.246C581.879,768.461 581.669,767.796 581.494,767.249L580.94,765.522C580.741,764.902 580.48,764.38 580.157,763.954C579.833,763.529 579.37,763.291 578.768,763.24C578.209,763.175 577.496,763.22 576.626,763.377C575.756,763.534 575.081,763.673 574.599,763.795L574.081,762.179L587.853,757.762L588.372,759.379Z" style="fill:rgb(248,219,101);fill-rule:nonzero;"/>
        <path d="M636.969,750.016L624.819,756.437L624.047,754.977C625.08,754.344 625.895,753.738 626.493,753.159C627.09,752.581 627.309,752.141 627.149,751.839C627.084,751.716 626.991,751.572 626.869,751.408C626.748,751.245 626.623,751.109 626.496,751.001L620.615,745.745L610.397,751.144C610.52,752.306 610.65,753.307 610.787,754.147C610.924,754.986 611.056,755.758 611.182,756.463C611.316,757.146 611.446,757.691 611.573,758.097C611.7,758.504 611.825,758.823 611.948,759.056C612.238,759.605 612.894,759.801 613.917,759.647C614.94,759.492 616.007,759.156 617.119,758.638L617.89,760.098L606.911,765.899L606.14,764.44C606.482,764.224 606.885,763.91 607.351,763.497C607.817,763.084 608.163,762.678 608.39,762.278C608.743,761.618 608.963,761.006 609.051,760.442C609.139,759.879 609.138,759.164 609.05,758.3C608.582,753.865 608.027,748.898 607.383,743.4C606.74,737.901 606.169,733.004 605.67,728.709L607.315,727.84L630.337,747.867C630.825,748.293 631.286,748.601 631.72,748.793C632.154,748.984 632.688,749.114 633.32,749.183C633.737,749.208 634.233,749.152 634.809,749.014C635.385,748.877 635.848,748.724 636.198,748.557L636.969,750.016ZM618.908,744.306L608.513,735.334L610.15,748.934L618.908,744.306Z" style="fill:rgb(248,219,101);fill-rule:nonzero;"/>
        <path d="M666.248,729.454L659.004,734.595C655.613,733.218 652.619,732.073 650.022,731.16C647.426,730.246 644.678,729.354 641.779,728.484L639.029,730.435L645.085,738.969C645.399,739.411 645.745,739.751 646.122,739.987C646.498,740.223 646.977,740.269 647.558,740.123C647.848,740.05 648.305,739.849 648.928,739.521C649.55,739.193 650.062,738.897 650.463,738.631L651.419,739.978L640.04,748.052L639.085,746.706C639.37,746.465 639.778,746.109 640.309,745.638C640.839,745.166 641.182,744.799 641.338,744.537C641.601,744.103 641.705,743.668 641.651,743.231C641.598,742.794 641.396,742.328 641.046,741.835L627.239,722.379C626.925,721.936 626.583,721.589 626.215,721.338C625.846,721.086 625.365,721.038 624.771,721.193C624.375,721.303 623.89,721.49 623.317,721.754C622.744,722.018 622.271,722.263 621.899,722.489L620.944,721.143L633.365,712.328C634.503,711.521 635.654,710.88 636.819,710.405C637.984,709.93 639.154,709.664 640.331,709.609C641.474,709.558 642.569,709.774 643.615,710.258C644.662,710.741 645.593,711.558 646.409,712.709C647.145,713.745 647.638,714.774 647.887,715.795C648.136,716.816 648.157,717.837 647.95,718.858C647.767,719.805 647.419,720.761 646.905,721.724C646.391,722.688 645.752,723.649 644.989,724.609C647.563,725.424 649.716,726.121 651.447,726.698C653.178,727.276 655.292,727.971 657.789,728.784C658.884,729.148 659.783,729.351 660.488,729.393C661.192,729.435 661.847,729.412 662.45,729.326C662.896,729.257 663.396,729.092 663.952,728.83C664.508,728.569 664.955,728.328 665.293,728.107L666.248,729.454ZM642.035,716.469C640.878,714.838 639.492,713.877 637.88,713.587C636.267,713.296 634.607,713.757 632.9,714.968L629.676,717.256L637.872,728.804L640.356,727.041C642.101,725.803 643.158,724.212 643.527,722.268C643.896,720.324 643.399,718.391 642.035,716.469Z" style="fill:rgb(248,219,101);fill-rule:nonzero;"/>
        <path d="M672.848,691.222L671.654,692.294C671.178,691.971 670.548,691.647 669.764,691.319C668.98,690.991 668.193,690.723 667.403,690.516C666.581,690.296 665.786,690.171 665.019,690.14C664.252,690.11 663.653,690.237 663.22,690.521C662.821,690.795 662.34,691.165 661.777,691.628C661.214,692.092 660.702,692.531 660.241,692.945L659.237,693.846L676.865,713.488C677.207,713.869 677.601,714.145 678.047,714.318C678.493,714.49 678.996,714.481 679.555,714.292C679.835,714.186 680.369,713.905 681.157,713.448C681.945,712.991 682.528,712.603 682.908,712.283L684.01,713.512L672.416,723.918L671.313,722.689C671.615,722.376 672.067,721.887 672.668,721.223C673.269,720.558 673.65,720.06 673.811,719.728C674.057,719.237 674.143,718.769 674.068,718.326C673.993,717.883 673.743,717.425 673.319,716.952L655.551,697.154L654.547,698.055C654.189,698.376 653.753,698.783 653.238,699.277C652.722,699.77 652.248,700.263 651.816,700.756C651.476,701.144 651.286,701.726 651.244,702.503C651.202,703.281 651.241,704.084 651.36,704.914C651.48,705.744 651.669,706.569 651.927,707.39C652.184,708.211 652.432,708.858 652.67,709.332L651.458,710.419L645.479,703.756L666.869,684.559L672.848,691.222Z" style="fill:rgb(248,219,101);fill-rule:nonzero;"/>
        <path d="M694.826,679.978C695.869,679.976 696.845,680.158 697.754,680.525C698.664,680.892 699.575,681.484 700.487,682.301C702.658,684.245 703.73,686.651 703.701,689.518C703.673,692.384 702.593,695.008 700.463,697.387C699.48,698.484 698.328,699.428 697.005,700.22C695.681,701.012 694.421,701.59 693.222,701.952L693.82,703.83L692.579,705.215L683.942,697.919L685.199,696.516C686.497,697.158 687.737,697.66 688.921,698.023C690.105,698.386 691.345,698.576 692.641,698.592C693.861,698.602 695.032,698.386 696.154,697.945C697.277,697.505 698.315,696.753 699.266,695.691C699.98,694.894 700.499,694.105 700.823,693.324C701.148,692.543 701.285,691.797 701.235,691.086C701.185,690.375 700.983,689.7 700.63,689.061C700.276,688.422 699.764,687.802 699.094,687.203C698.113,686.324 696.949,685.781 695.604,685.575C694.259,685.37 692.875,685.619 691.454,686.323C690.482,686.805 689.379,687.368 688.147,688.012C686.914,688.657 685.821,689.186 684.867,689.601C683.002,690.429 681.221,690.774 679.522,690.637C677.824,690.5 676.161,689.703 674.533,688.244C673.597,687.407 672.896,686.435 672.429,685.33C671.961,684.225 671.726,683.036 671.721,681.763C671.721,680.555 671.958,679.343 672.435,678.125C672.911,676.908 673.594,675.803 674.483,674.81C675.497,673.678 676.577,672.819 677.725,672.235C678.873,671.65 680.009,671.195 681.133,670.869L680.591,669.104L681.832,667.718L690.115,674.886L688.859,676.289C687.696,675.706 686.545,675.19 685.406,674.742C684.267,674.295 683.123,674.015 681.975,673.902C680.861,673.799 679.784,673.927 678.744,674.286C677.705,674.646 676.719,675.345 675.789,676.384C674.806,677.481 674.321,678.732 674.332,680.137C674.344,681.542 674.858,682.699 675.874,683.609C676.937,684.56 678.04,685.101 679.183,685.23C680.326,685.359 681.547,685.151 682.846,684.608C684.005,684.127 685.096,683.611 686.12,683.06C687.143,682.51 688.164,682.003 689.181,681.541C690.102,681.117 691.04,680.755 691.995,680.455C692.95,680.156 693.894,679.997 694.826,679.978Z" style="fill:rgb(248,219,101);fill-rule:nonzero;"/>
    </g>
    <g transform="matrix(1,0,0,1,-2528.95,-3151.49)">
        <g transform="matrix(1,0,0,1,-176.496,133.035)">
            <path d="M2872.26,3435.7C2872.26,3297.72 2984.28,3185.7 3122.26,3185.7L3122.26,3435.7L2872.26,3435.7Z" style="fill:rgb(248,219,101);"/>
        </g>
        <g transform="matrix(-1,-1.22465e-16,1.22465e-16,-1,6071.12,7005.31)">
            <path d="M2872.26,3435.7C2872.26,3297.72 2984.28,3185.7 3122.26,3185.7L3122.26,3435.7L2872.26,3435.7Z" style="fill:rgb(248,219,101);"/>
        </g>
        <g transform="matrix(6.12323e-17,1,-1,6.12323e-17,6383.02,446.478)">
            <path d="M2872.26,3435.7C2872.26,3297.72 2984.28,3185.7 3122.26,3185.7L3122.26,3435.7L2872.26,3435.7Z" style="fill:rgb(8,6,5);"/>
        </g>
        <g transform="matrix(2.36539,0,0,2.36539,2973.3,3388.14)">
            <path d="M34.744,1C34.744,1 24.133,6.079 28.508,20.74C28.624,21.129 28.779,21.823 28.99,22.738C21.426,27.071 16.841,34.222 18.035,39.705C19.143,44.792 23.74,50.458 34.689,48.936C34.761,49.268 34.82,49.535 34.863,49.73C35.778,53.897 34.999,56.491 32.547,57.441C31.87,57.703 31.237,57.75 30.656,57.676C31.201,56.997 31.499,56.151 31.499,55.28C31.499,53.182 29.774,51.455 27.676,51.453C27.675,51.453 27.675,51.453 27.674,51.453C25.575,51.453 23.847,53.181 23.847,55.28C23.847,56.221 24.194,57.129 24.82,57.83C24.822,57.832 24.824,57.834 24.826,57.836C25.868,59.269 28.287,61 31.139,61C35.647,61 39.792,56.881 38.066,49.027L31.818,20.43L31.816,20.434C29.667,12.531 34.652,7.744 34.652,7.744C34.652,7.744 36.348,9.694 36.369,12.217C36.379,13.472 36.122,15.48 33.809,18.305L35.211,24.275C39.717,19.195 39.489,13.465 39.498,11.707C39.531,5.114 34.744,1 34.744,1ZM30.152,28.092L30.936,31.6C25.48,34.943 26.522,40.316 27.48,42.535L29.371,41.656C29.311,41.517 28.512,37.982 31.887,35.883L34.002,45.727C26.808,47.174 23.729,42.364 23.271,39.586C22.623,35.659 24.321,32.313 30.152,28.092ZM37.633,30.086C37.263,30.073 36.908,30.079 36.574,30.098L37.648,34.668C38.713,34.991 39.776,35.721 40.168,37.309C40.693,39.434 40.181,41.088 39.436,42.279L40.406,46.422C43.072,44.548 46.612,40.896 44.855,35.418C43.501,31.194 40.22,30.177 37.633,30.086Z" style="fill:rgb(248,219,101);"/>
        </g>
        <g transform="matrix(2.46543,0,0,2.46543,2993.53,3614.75)">
            <path d="M36.594,0C30.684,0 28,4.148 28,8C28,10.848 29.051,12.566 30.063,14.219C31.063,15.855 32,17.375 32,20.188C32,21.988 31.563,24.043 31.094,26.188C30.559,28.652 30,31.195 30,33.813C30,38.262 30.738,43.91 34.219,45.531C35.23,45.965 36.91,46 37.594,46C44.664,46 50,37.262 50,25.688C50,24.781 49.977,23.84 49.906,22.875C49.91,22.742 49.91,22.602 49.906,22.469C49.902,22.355 49.879,22.258 49.844,22.156C49.164,14.605 46.371,5.941 41.781,2.063L41.125,1.531C39.762,0.555 38.246,0 36.594,0ZM40.531,3.563C43.266,5.813 45.332,10.246 46.594,15.125C46.563,15.367 46.086,18.66 43.5,21.625C41.906,20.305 40.191,18.391 38.688,15.625C38.637,15.531 38.543,15.445 38.469,15.375C38.281,13.652 37.949,12.059 37.625,10.594C37.074,8.113 36.602,5.953 37.406,4.844C37.895,4.172 38.918,3.766 40.531,3.563ZM13.406,4C11.754,4 10.238,4.555 8.875,5.531L8.219,6.063C3.633,9.934 0.84,18.578 0.156,26.125C0.117,26.23 0.098,26.348 0.094,26.469C0.09,26.602 0.094,26.742 0.094,26.875C0.023,27.844 0,28.777 0,29.688C0,41.262 5.336,50 12.406,50C13.09,50 14.773,49.945 15.813,49.5C19.266,47.891 20,42.262 20,37.813C20,35.195 19.441,32.652 18.906,30.188C18.438,28.043 18,25.988 18,24.188C18,21.375 18.938,19.855 19.938,18.219C20.949,16.566 22,14.848 22,12C22,8.148 19.316,4 13.406,4ZM9.469,7.563C11.082,7.766 12.105,8.172 12.594,8.844C13.402,9.953 12.926,12.113 12.375,14.594C12.051,16.059 11.719,17.652 11.531,19.375C11.457,19.445 11.363,19.531 11.313,19.625C9.809,22.391 8.074,24.305 6.469,25.625C3.926,22.711 3.453,19.484 3.406,19.125C4.668,14.246 6.734,9.813 9.469,7.563ZM47.438,19.094C47.648,20.379 47.813,21.656 47.906,22.906C47.902,23.332 47.855,23.75 47.813,24.156C47.168,23.926 46.207,23.527 45.094,22.813C46.152,21.559 46.918,20.254 47.438,19.094ZM38.563,19.188C39.707,20.789 40.91,22.02 42.063,23C40.77,24.082 39.113,25.023 37,25.625C37.102,25.008 37.262,24.352 37.531,23.656C38.125,22.121 38.441,20.633 38.563,19.188ZM2.563,23.094C3.082,24.25 3.82,25.531 4.875,26.781C3.766,27.492 2.832,27.922 2.188,28.156C2.145,27.75 2.098,27.332 2.094,26.906C2.188,25.656 2.352,24.379 2.563,23.094ZM11.438,23.188C11.559,24.633 11.875,26.121 12.469,27.656C12.738,28.352 12.898,29.008 13,29.625C10.879,29.023 9.234,28.105 7.938,27.031C9.094,26.051 10.285,24.797 11.438,23.188ZM43.688,24.25C45.246,25.301 46.602,25.852 47.438,26.125C47.051,27.418 46.426,28.559 45.594,29.406C44.57,30.445 43.297,31 42,31C40.059,31 38.406,30.262 37.563,29.031C37.297,28.645 37.105,28.207 37,27.719C39.875,26.996 42.051,25.715 43.688,24.25ZM6.313,28.25C7.949,29.711 10.125,30.996 13,31.719C12.895,32.207 12.703,32.645 12.438,33.031C11.594,34.262 9.941,35 8,35C6.703,35 5.426,34.414 4.406,33.375C3.574,32.527 2.949,31.418 2.563,30.125C3.398,29.852 4.754,29.301 6.313,28.25Z"/>
        </g>
        <g transform="matrix(6.12323e-17,-1,1,6.12323e-17,-488.4,6691.87)">
            <path d="M2872.26,3435.7C2872.26,3297.72 2984.28,3185.7 3122.26,3185.7L3122.26,3435.7L2872.26,3435.7Z" style="fill:rgb(8,6,5);"/>
        </g>
        <g transform="matrix(1.86529,0,0,2.40644,2709.84,1729.31)">
            <path d="M108.337,702.32C107.691,702.382 107.045,702.523 106.399,702.742C105.754,702.961 105.118,703.237 104.493,703.57C103.535,704.112 102.852,704.705 102.446,705.351C102.04,705.997 101.67,706.778 101.337,707.695C100.191,710.862 98.425,715.935 96.04,722.914C93.655,729.893 91.17,737.143 88.587,744.664L82.306,744.664L70.587,711.695L60.024,744.664L53.743,744.664C50.264,734.539 47.597,726.742 45.743,721.273C43.889,715.804 42.326,711.216 41.056,707.507C40.66,706.382 40.212,705.565 39.712,705.054C39.212,704.544 38.566,704.028 37.774,703.507C37.212,703.132 36.613,702.856 35.977,702.679C35.342,702.502 34.608,702.362 33.774,702.257L33.774,699.82L57.431,699.82L57.431,702.195C56.035,702.362 54.993,702.523 54.306,702.679C53.618,702.836 53.076,702.997 52.681,703.164C52.306,703.33 52.076,703.507 51.993,703.695C51.91,703.882 51.868,704.049 51.868,704.195C51.868,704.487 51.905,704.768 51.977,705.039C52.05,705.31 52.129,705.622 52.212,705.976C52.712,707.601 53.722,710.685 55.243,715.226C56.764,719.768 58.639,725.403 60.868,732.132L70.962,699.82L77.587,699.82L89.306,733.132C91.035,727.778 92.415,723.403 93.446,720.007C94.477,716.612 95.347,713.705 96.056,711.289C96.472,709.81 96.806,708.57 97.056,707.57C97.306,706.57 97.431,705.705 97.431,704.976C97.431,704.539 97.227,704.164 96.821,703.851C96.415,703.539 95.868,703.268 95.181,703.039C94.597,702.851 93.842,702.7 92.915,702.586C91.988,702.471 91.181,702.382 90.493,702.32L90.493,699.82L108.337,699.82L108.337,702.32Z"/>
        </g>
        <g transform="matrix(2.93365,0,0,2.93365,2770.01,3604.94)">
            <path d="M20.719,0C18.195,0 15.352,0.527 12.281,1.563C1.031,5.418 0.035,11.402 0,11.656L-0.031,11.906L0.063,12.125C4.602,25.832 11.285,31.293 16.125,33.469C16.441,30.734 17.16,27.672 18.469,24.25C16.199,25.418 15.473,27.105 15.438,27.188C15.277,27.57 14.891,27.781 14.5,27.781C14.371,27.781 14.25,27.77 14.125,27.719C13.617,27.508 13.355,26.945 13.563,26.438C13.613,26.309 14.891,23.277 18.969,21.844C19.156,21.785 19.344,21.766 19.531,21.719C20.281,20.035 21.148,18.281 22.188,16.438L22.563,15.781L22.969,15.5L23.188,15.375C23.535,15.148 25.438,14.031 28.875,14.031C29.512,14.031 30.152,14.082 30.813,14.156C30.457,10.406 29.613,6.512 28.25,2.563L28.156,2.344L28,2.188C27.91,2.098 25.766,0 20.719,0ZM19.406,12.313C20.168,12.289 21.148,12.305 22,12.406C23.898,12.605 25.5,13.313 25.5,13.313C25.5,13.313 23.195,15.887 21.594,15.688C19.293,15.387 18.094,12.406 18.094,12.406C18.094,12.406 18.645,12.336 19.406,12.313ZM14,13.688C14,13.688 14.789,16.801 13.188,18.5C12.086,19.699 8.688,18.906 8.688,18.906C8.688,18.906 9.508,17.492 10.906,16.094C12.105,14.895 14,13.688 14,13.688ZM28.875,16.031C25.938,16.031 24.414,16.957 24.25,17.063L24.063,17.188L23.938,17.406C11.48,39.465 22.074,49.07 22.531,49.469L22.719,49.594L22.906,49.656C22.953,49.672 24.105,50.031 26,50.031C31.051,50.031 40.887,47.672 49.875,31.906L50,31.688L50,31.469C50.012,31.211 50.199,25.172 39.875,19.438C35.855,17.184 32.168,16.031 28.875,16.031ZM28.719,25.625C29.289,25.633 29.863,25.75 30.313,26C31.813,26.898 32.406,29.688 32.406,29.688C32.406,29.688 30.395,28.988 28.594,28.188C26.695,27.387 25.094,26.406 25.094,26.406C25.094,26.406 27.004,25.598 28.719,25.625ZM37.219,30.625C37.914,30.582 38.625,30.664 39.188,31C40.988,32 41.594,35.688 41.594,35.688C41.594,35.688 39.887,34.887 38.188,33.688L35,31.094C35,31.094 36.063,30.699 37.219,30.625ZM24.5,31.906C24.5,31.906 27.695,35.387 30.094,36.688C32.492,37.988 37.188,39 37.188,39C37.188,39 31.305,44.906 26.906,42.406C22.508,39.906 24.5,31.906 24.5,31.906Z" style="fill:rgb(248,219,101);"/>
        </g>
    </g>
    <g transform="matrix(0.998858,0,0,0.998858,-2150.6,-298.312)">
        <path d="M2773.71,447.722C2858.77,509.715 2914.08,610.105 2914.08,723.313C2914.08,785.909 2897.17,844.587 2867.67,895.022L2860.76,889.637C2889.15,840.714 2905.41,783.897 2905.41,723.313C2905.41,613.091 2851.6,515.339 2768.84,454.911L2773.71,447.722ZM2289.26,911.647C2253.38,857.678 2232.47,792.918 2232.47,723.313C2232.47,618.328 2280.05,524.368 2354.79,461.83L2359.82,468.93C2287.29,529.876 2241.15,621.249 2241.15,723.313C2241.15,790.781 2261.31,853.577 2295.93,906.001L2289.26,911.647Z" style="fill:rgb(248,219,101);"/>
    </g>
</svg>
